<?xml version="1.0" encoding="UTF-8" standalone="no"?>
<!-- Created with Inkscape (http://www.inkscape.org/) -->

<svg
   xmlns:dc="http://purl.org/dc/elements/1.1/"
   xmlns:cc="http://creativecommons.org/ns#"
   xmlns:rdf="http://www.w3.org/1999/02/22-rdf-syntax-ns#"
   xmlns:svg="http://www.w3.org/2000/svg"
   xmlns="http://www.w3.org/2000/svg"
   xmlns:sodipodi="http://sodipodi.sourceforge.net/DTD/sodipodi-0.dtd"
   xmlns:inkscape="http://www.inkscape.org/namespaces/inkscape"
   width="203.80908mm"
   height="54.593544mm"
   viewBox="0 0 203.80908 54.593544"
   version="1.1"
   id="svg4610"
   inkscape:version="0.92.4 (5da689c313, 2019-01-14)"
   sodipodi:docname="omroom_logo_green.svg">
  <defs
     id="defs4604">
    <clipPath
       id="clip1">
      <path
         inkscape:connector-curvature="0"
         d="M 0,410.5 H 595 V 842 H 0 Z m 0,0"
         id="path2" />
    </clipPath>
  </defs>
  <sodipodi:namedview
     id="base"
     pagecolor="#ffffff"
     bordercolor="#666666"
     borderopacity="1.0"
     inkscape:pageopacity="0.0"
     inkscape:pageshadow="2"
     inkscape:zoom="0.35"
     inkscape:cx="-64.848965"
     inkscape:cy="-352.54539"
     inkscape:document-units="mm"
     inkscape:current-layer="layer1"
     showgrid="false"
     fit-margin-top="0"
     fit-margin-left="0"
     fit-margin-right="0"
     fit-margin-bottom="0"
     inkscape:window-width="1920"
     inkscape:window-height="1027"
     inkscape:window-x="-8"
     inkscape:window-y="-8"
     inkscape:window-maximized="1" />
  <metadata
     id="metadata4607">
    <rdf:RDF>
      <cc:Work
         rdf:about="">
        <dc:format>image/svg+xml</dc:format>
        <dc:type
           rdf:resource="http://purl.org/dc/dcmitype/StillImage" />
        <dc:title></dc:title>
      </cc:Work>
    </rdf:RDF>
  </metadata>
  <g
     inkscape:label="Layer 1"
     inkscape:groupmode="layer"
     id="layer1"
     transform="translate(-0.14902671,-0.96215528)">
    <g
       transform="matrix(0.47649388,0,0,0.47872667,-40.736382,-271.56609)"
       id="surface1">
      <path
         inkscape:connector-curvature="0"
         style="fill:#7fd1b8;fill-opacity:1;fill-rule:nonzero;stroke:none"
         d="m 116.08594,625.52734 c -10.08985,0 -14.51563,-7.26172 -14.51563,-19.39453 0,-10.09375 4.42578,-17.34765 13.15235,-17.34765 9.98047,0 14.51562,7.2539 14.51562,19.5 0,9.98046 -4.30859,17.24218 -13.15234,17.24218 z m 0.5039,-50.32812 c -1.43359,-3.8711 -5.19921,-5.92188 -10.47265,-5.92188 h -4.19141 v 9.0586 c -10.554686,5.26953 -16.121092,16.64062 -16.121092,29.94922 0,16.22265 10.550781,30.84765 28.917972,30.84765 19.73046,0 30.28125,-14.625 30.28125,-33 0,-16.0625 -10.36329,-30.66015 -28.41407,-30.93359"
         id="path7" />
      <path
         inkscape:connector-curvature="0"
         style="fill:#7fd1b8;fill-opacity:1;fill-rule:nonzero;stroke:none"
         d="m 217.16406,575.17578 c -7.37109,0 -14.05859,3.85547 -17.57422,9.52344 -4.42187,-5.89453 -10.66015,-9.52344 -18.60156,-9.52344 -18.48047,0 -27.21484,11.11328 -27.21484,27.77734 v 23.70313 c 0,7.03516 4.76562,11.11719 11,11.11719 h 4.08593 v -36.0625 c 0,-8.39063 4.42188,-13.04297 10.31641,-13.04297 6.6875,0 11.33984,4.30859 11.33984,14.40234 v 23.58594 c 0,7.25781 4.42188,11.11719 11.11329,11.11719 h 4.08593 v -36.40235 c 0,-8.39453 4.19532,-12.70312 10.31641,-12.70312 6.69141,0 11.22656,4.30859 11.22656,14.40234 v 23.58594 c 0,7.25781 3.28906,11.11719 11.56641,11.11719 h 3.74219 v -36.7461 c 0,-17.34765 -11.33985,-25.85156 -25.40235,-25.85156"
         id="path9" />
      <path
         inkscape:connector-curvature="0"
         style="fill:#7fd1b8;fill-opacity:1;fill-rule:nonzero;stroke:none"
         d="m 276.625,575.96875 c -4.29688,0 -7.88672,0.85156 -10.87109,2.30469 -1.87891,-1.30469 -4.40625,-1.97657 -7.42969,-1.97657 h -4.19141 v 21.49219 c -0.0469,0.69922 -0.0742,1.40235 -0.0742,2.10938 v 28.12109 c 0,6.34766 4.3086,9.75391 11.11328,9.75391 h 4.19532 v -23.6211 l 0.0742,0.0156 v -13.55078 c 0.51171,-7.83203 4.17968,-11.04297 10.46875,-11.04297 3.97265,0 6.57812,0.91015 8.84765,1.82031 h 0.5625 v -5.44531 c 0,-4.64844 -3.28515,-9.98047 -12.69531,-9.98047"
         id="path11" />
      <path
         inkscape:connector-curvature="0"
         style="fill:#7fd1b8;fill-opacity:1;fill-rule:nonzero;stroke:none"
         d="m 322.02734,625.52734 c -10.09375,0 -14.51172,-7.26172 -14.51172,-19.39453 0,-10.09375 4.41797,-17.34765 13.15235,-17.34765 9.97656,0 14.51562,7.2539 14.51562,19.5 0,9.98046 -4.30859,17.24218 -13.15625,17.24218 z m 0,-50.35156 c -19.73047,0 -30.27734,14.74219 -30.27734,33.10938 0,16.22265 10.54687,30.84765 28.91797,30.84765 19.73047,0 30.27344,-14.625 30.27344,-33 0,-16.21484 -10.54297,-30.95703 -28.91407,-30.95703"
         id="path13" />
      <path
         inkscape:connector-curvature="0"
         style="fill:#7fd1b8;fill-opacity:1;fill-rule:nonzero;stroke:none"
         d="m 387.04687,625.52734 c -10.09375,0 -14.51953,-7.26172 -14.51953,-19.39453 0,-10.09375 4.42578,-17.34765 13.16016,-17.34765 9.97656,0 14.51172,7.2539 14.51172,19.5 0,9.98046 -4.30469,17.24218 -13.15235,17.24218 z m 0,-50.35156 c -19.73046,0 -30.27734,14.74219 -30.27734,33.10938 0,16.22265 10.54688,30.84765 28.91797,30.84765 19.73047,0 30.27734,-14.625 30.27734,-33 0,-16.21484 -10.54687,-30.95703 -28.91797,-30.95703"
         id="path15" />
      <path
         inkscape:connector-curvature="0"
         style="fill:#7fd1b8;fill-opacity:1;fill-rule:nonzero;stroke:none"
         d="m 488.12891,575.17578 c -7.3711,0 -14.06641,3.85547 -17.57813,9.52344 -4.42187,-5.89453 -10.65625,-9.52344 -18.59375,-9.52344 -18.48437,0 -27.22266,11.11328 -27.22266,27.77734 v 23.70313 c 0,7.03516 4.76563,11.11719 11.00391,11.11719 h 4.08203 v -36.0625 c 0,-8.39063 4.42578,-13.04297 10.32031,-13.04297 6.69141,0 11.33985,4.30859 11.33985,14.40234 v 23.58594 c 0,7.25781 4.41797,11.11719 11.11328,11.11719 h 4.07812 v -36.40235 c 0,-8.39453 4.19922,-12.70312 10.32422,-12.70312 6.69141,0 11.22657,4.30859 11.22657,14.40234 v 23.58594 c 0,7.25781 3.28906,11.11719 11.5625,11.11719 h 3.74609 v -36.7461 c 0,-17.34765 -11.34375,-25.85156 -25.40234,-25.85156"
         id="path17" />
      <path
         inkscape:connector-curvature="0"
         style="fill:#7fd1b8;fill-opacity:1;fill-rule:nonzero;stroke:none"
         d="m 164.9375,683.12891 c -0.51953,0 -1.11719,-0.39063 -1.11719,-1.24219 v -4.57031 h -6.36719 v 5.8125 h -0.63281 c -0.5039,0 -1.07812,-0.3711 -1.07812,-1.24219 v -11.39063 h 0.91015 c 0.38672,0 0.80078,0.30078 0.80078,0.85938 v 4.40234 h 6.36719 v -5.26172 h 0.82031 c 0.44532,0 0.8711,0.35547 0.8711,0.85938 v 11.77344 h -0.57422"
         id="path19" />
      <path
         inkscape:connector-curvature="0"
         style="fill:#7fd1b8;fill-opacity:1;fill-rule:nonzero;stroke:none"
         d="m 178.97266,672.02344 c -1.19141,2.11328 -1.89844,4.0664 -2.54688,6.40234 h 5.08984 c -0.67187,-2.375 -1.44921,-4.41797 -2.54296,-6.40234 z m 4.73437,11.10547 c -0.72656,0 -1.0625,-0.3125 -1.17187,-0.89063 -0.16797,-0.87109 -0.44141,-1.83984 -0.59375,-2.45312 h -5.90625 c -0.24219,0.93359 -0.57813,2.30859 -0.76563,3.34375 h -0.64844 c -0.53515,0 -0.76172,-0.23829 -0.76172,-0.8125 0,-1.75 2.50782,-9.4375 4.46094,-11.82032 h 0.5586 c 0.70312,0 1.16796,0.46875 1.70703,1.41407 1.11328,1.95312 3.10156,7.13671 3.73047,11.21875 h -0.60938"
         id="path21" />
      <path
         inkscape:connector-curvature="0"
         style="fill:#7fd1b8;fill-opacity:1;fill-rule:nonzero;stroke:none"
         d="m 196.73828,683.22266 h -0.43359 c -0.3086,0 -0.73828,-0.24219 -1.08985,-0.83594 -2.0625,-3.45313 -3.57031,-8.03906 -4.23437,-11.89063 h 0.74219 c 0.46484,0 1.09375,0.35547 1.22656,1.02344 0.48437,2.51172 1.79687,6.89063 3.28515,9.54688 1.39063,-2.70704 2.9375,-7.24219 3.47657,-10.57032 h 0.8125 c 0.42968,0 0.74218,0.33594 0.74218,0.67188 0,0.16797 -0.0156,0.35156 -0.0547,0.53515 -0.71875,3.66407 -3.15625,9.38672 -4.47266,11.51954"
         id="path23" />
      <path
         inkscape:connector-curvature="0"
         style="fill:#7fd1b8;fill-opacity:1;fill-rule:nonzero;stroke:none"
         d="m 215.60156,683.22266 h -1.5625 c -3.15625,0 -4.58984,-1.82032 -4.58984,-5.25782 v -2.28125 c 0,-1.07812 0.20703,-2.50781 0.42969,-3.42187 0.29687,-1.22656 0.75781,-1.76563 1.59765,-1.76563 h 6.58985 v 0.69141 c 0,0.44531 -0.27344,0.87109 -1.22657,0.87109 h -5.23437 c -0.25781,1.01953 -0.44531,2.52735 -0.44531,3.84766 h 5.47656 v 0.53516 c 0,0.5039 -0.33203,0.91406 -1.09375,0.91406 h -4.38281 v 0.92578 c 0,2.54687 0.94531,3.40234 3.45703,3.40234 h 0.96484 c 0.94531,0 1.78125,-0.1914 2.375,-0.35547 v 0.48438 c 0,0.875 -0.29687,1.41016 -2.35547,1.41016"
         id="path25" />
      <path
         inkscape:connector-curvature="0"
         style="fill:#7fd1b8;fill-opacity:1;fill-rule:nonzero;stroke:none"
         d="m 235.87109,683.12891 c -1.14843,0 -2.17187,-0.63282 -3.51172,-3.32422 l -2.67187,-5.40235 c -0.51953,-1.0625 -0.92578,-1.65625 -1.39453,-2.10547 v 10.83204 h -0.70313 c -0.53906,0 -0.94531,-0.40625 -0.94531,-1.15235 v -11.5 h 0.81641 c 1.48437,0 2.48437,1.02735 3.22656,2.53125 l 2.67969,5.41797 c 0.48047,0.97266 0.87109,1.9375 1.42968,2.62109 v -10.55078 h 0.70704 c 0.48046,0 0.89062,0.3711 0.89062,0.89453 v 11.73829 h -0.52344"
         id="path27" />
      <path
         inkscape:connector-curvature="0"
         style="fill:#7fd1b8;fill-opacity:1;fill-rule:nonzero;stroke:none"
         d="m 261.63281,671.875 c -2.39844,0 -3.91797,1.55859 -3.91797,4.76953 0,3.27344 1.39063,5.11328 4.1211,5.11328 2.45312,0 3.92187,-1.85937 3.92187,-4.79687 0,-3.37891 -1.28125,-5.08594 -4.125,-5.08594 z m 0,11.44141 c -3.04687,0 -5.61328,-2.35938 -5.61328,-6.35547 0,-3.88282 2.10156,-6.64844 5.81641,-6.64844 3.40234,0 5.60937,2.59766 5.60937,6.33203 0,3.86719 -2.09765,6.67188 -5.8125,6.67188"
         id="path29" />
      <path
         inkscape:connector-curvature="0"
         style="fill:#7fd1b8;fill-opacity:1;fill-rule:nonzero;stroke:none"
         d="m 282.94922,672.07422 h -4.75391 v 3.64453 h 4.92188 v 0.55859 c 0,0.59375 -0.42969,0.96094 -1.07813,0.96094 h -3.84375 v 5.89063 h -0.65234 c -0.72266,0 -1.07422,-0.29297 -1.07422,-1.01954 v -10.05078 c 0,-1.13281 0.44531,-1.5625 1.83594,-1.5625 h 5.66797 v 0.72657 c 0,0.35546 -0.28125,0.85156 -1.02344,0.85156"
         id="path31" />
      <path
         inkscape:connector-curvature="0"
         style="fill:#7fd1b8;fill-opacity:1;fill-rule:nonzero;stroke:none"
         d="m 314.07812,683.22266 h -0.42968 c -0.35157,0 -0.63282,-0.29688 -0.79688,-0.59375 -0.89062,-1.69141 -2.15625,-5 -2.8789,-8.6211 -0.76563,3.60547 -2.21094,7.69141 -3.08594,9.21485 h -0.36719 c -0.46484,0 -0.83984,-0.38672 -0.95312,-0.59375 -1.83594,-3.60547 -3.04688,-7.61719 -3.69532,-12.13282 h 0.89453 c 0.57813,0 0.96485,0.53907 1.05469,1.1211 0.50781,2.91015 1.35938,6.19922 2.60156,9.13672 1.15235,-2.95313 2.09766,-6.40625 2.64063,-8.89844 0.0547,-0.25781 0.18359,-0.94922 0.18359,-0.94922 h 0.48438 c 0.85156,0 1.11328,0.26172 1.35547,1.43359 0.48047,2.33594 1.46875,5.82813 2.60156,8.41407 1.22266,-2.97266 2.42969,-7.07813 2.78906,-10.25782 h 0.8711 c 0.37109,0 0.6875,0.30078 0.6875,0.80078 0,0.33594 -0.0937,0.67188 -0.15235,1 -0.64844,3.40235 -1.96875,7.37891 -3.80469,10.92579"
         id="path33" />
      <path
         inkscape:connector-curvature="0"
         style="fill:#7fd1b8;fill-opacity:1;fill-rule:nonzero;stroke:none"
         d="m 332.73828,683.22266 h -1.55859 c -3.16016,0 -4.58985,-1.82032 -4.58985,-5.25782 v -2.28125 c 0,-1.07812 0.20703,-2.50781 0.42578,-3.42187 0.29688,-1.22656 0.76563,-1.76563 1.59766,-1.76563 h 6.58984 v 0.69141 c 0,0.44531 -0.27343,0.87109 -1.22265,0.87109 h -5.23438 c -0.26172,1.01953 -0.44531,2.52735 -0.44531,3.84766 h 5.47656 v 0.53516 c 0,0.5039 -0.33593,0.91406 -1.09375,0.91406 h -4.38281 v 0.92578 c 0,2.54687 0.94141,3.40234 3.45313,3.40234 h 0.96484 c 0.94531,0 1.78516,-0.1914 2.38281,-0.35547 v 0.48438 c 0,0.875 -0.30078,1.41016 -2.36328,1.41016"
         id="path35" />
      <path
         inkscape:connector-curvature="0"
         style="fill:#7fd1b8;fill-opacity:1;fill-rule:nonzero;stroke:none"
         d="m 349.03516,683.22266 h -1.05469 c -2.9375,0 -4.19922,-1.63282 -4.19922,-4.53125 v -8.21485 h 0.61328 c 0.66797,0 1.07422,0.28516 1.07422,1.26563 v 6.5 c 0,2.69531 0.5625,3.3789 2.86328,3.3789 h 0.70313 c 0.90625,0 1.8789,-0.10547 2.47265,-0.27734 v 0.50391 c 0,0.76562 -0.37109,1.375 -2.47265,1.375"
         id="path37" />
      <path
         inkscape:connector-curvature="0"
         style="fill:#7fd1b8;fill-opacity:1;fill-rule:nonzero;stroke:none"
         d="m 364.79687,683.22266 h -1.0625 c -2.92968,0 -4.1914,-1.63282 -4.1914,-4.53125 v -8.21485 h 0.61328 c 0.66797,0 1.07422,0.28516 1.07422,1.26563 v 6.5 c 0,2.69531 0.55469,3.3789 2.85937,3.3789 h 0.70703 c 0.90625,0 1.87891,-0.10547 2.47266,-0.27734 v 0.50391 c 0,0.76562 -0.375,1.375 -2.47266,1.375"
         id="path39" />
      <path
         inkscape:connector-curvature="0"
         style="fill:#7fd1b8;fill-opacity:1;fill-rule:nonzero;stroke:none"
         d="m 376.89453,677.29687 v 3.02735 c 0,0.91406 0.55859,1.375 1.67188,1.375 h 1.32421 c 1.53907,0 2.52344,-0.72656 2.52344,-2.1875 0,-1.6211 -0.80078,-2.21485 -2.84375,-2.21485 z m -0.0156,-1.41015 h 2.58203 c 1.76562,0 2.75,-0.5 2.75,-2.00781 0,-1.39063 -0.9336,-1.96875 -2.64063,-1.96875 h -1.03906 c -0.42969,0 -1.04297,0.0781 -1.65234,0.22265 z m 3.08203,7.33594 h -1.48828 c -2.33594,0 -3.26172,-1.11329 -3.26172,-2.82422 v -9.47266 c 0.72265,-0.24219 2.17187,-0.51953 3.05859,-0.51953 h 1.67578 c 2.54297,0 3.9375,1.46875 3.9375,3.30469 0,1.21093 -0.44922,2.28515 -2.25,2.80468 1.98438,0.53907 2.49219,1.96875 2.49219,2.88282 0,2.35937 -1.80469,3.82422 -4.16406,3.82422"
         id="path41" />
      <path
         inkscape:connector-curvature="0"
         style="fill:#7fd1b8;fill-opacity:1;fill-rule:nonzero;stroke:none"
         d="m 399.01172,683.22266 h -1.56641 c -3.15234,0 -4.58594,-1.82032 -4.58594,-5.25782 v -2.28125 c 0,-1.07812 0.20704,-2.50781 0.42969,-3.42187 0.29688,-1.22656 0.76563,-1.76563 1.59766,-1.76563 h 6.59375 v 0.69141 c 0,0.44531 -0.27735,0.87109 -1.22266,0.87109 h -5.24219 c -0.25781,1.01953 -0.44531,2.52735 -0.44531,3.84766 h 5.48047 v 0.53516 c 0,0.5039 -0.33203,0.91406 -1.09375,0.91406 h -4.38672 v 0.92578 c 0,2.54687 0.94922,3.40234 3.45313,3.40234 h 0.96875 c 0.94531,0 1.78125,-0.1914 2.375,-0.35547 v 0.48438 c 0,0.875 -0.29688,1.41016 -2.35547,1.41016"
         id="path43" />
      <path
         inkscape:connector-curvature="0"
         style="fill:#7fd1b8;fill-opacity:1;fill-rule:nonzero;stroke:none"
         d="m 411.26562,683.12891 c -0.65625,0 -1.12109,-0.3711 -1.12109,-1.24219 v -11.39063 h 0.82031 c 0.44532,0 0.91016,0.35547 0.91016,0.85938 v 11.77344 h -0.60938"
         id="path45" />
      <path
         inkscape:connector-curvature="0"
         style="fill:#7fd1b8;fill-opacity:1;fill-rule:nonzero;stroke:none"
         d="m 430.67578,683.12891 c -1.15234,0 -2.17578,-0.63282 -3.51172,-3.32422 l -2.67187,-5.40235 c -0.52344,-1.0625 -0.92969,-1.65625 -1.39453,-2.10547 v 10.83204 h -0.70704 c -0.53906,0 -0.94531,-0.40625 -0.94531,-1.15235 v -11.5 h 0.82031 c 1.48047,0 2.48829,1.02735 3.23047,2.53125 l 2.67188,5.41797 c 0.48047,0.97266 0.875,1.9375 1.43359,2.62109 v -10.55078 h 0.70313 c 0.48437,0 0.89062,0.3711 0.89062,0.89453 v 11.73829 h -0.51953"
         id="path47" />
      <path
         inkscape:connector-curvature="0"
         style="fill:#7fd1b8;fill-opacity:1;fill-rule:nonzero;stroke:none"
         d="m 450.43359,672.59766 v 0.61328 h -0.0937 c -0.53906,-0.72266 -1.6914,-1.33594 -3.51172,-1.33594 -2.39453,0 -4.625,1.53906 -4.625,4.78906 0,3.58985 2.15625,5.09375 4.73438,5.09375 1.62109,0 2.04687,-0.44922 2.04687,-1.73047 v -1.16797 c 0,-0.53906 -0.0351,-1.05859 -0.0898,-1.43359 h 0.75781 c 0.53907,0 0.89453,0.41016 0.89453,0.875 v 2.15234 c 0,1.78516 -1.15234,2.86329 -3.91796,2.86329 -3.27344,0 -6.13282,-2.59766 -6.13282,-6.44532 0,-3.71484 2.30469,-6.55859 6.53516,-6.55859 2.10156,0 3.40234,1.15234 3.40234,2.28516"
         id="path49" />
      <g
         style="clip-rule:nonzero"
         clip-path="url(#clip1)"
         id="g53" />
    </g>
  </g>
</svg>
